:FULLY-SPECIFIED
:FORCE-ALL-JOINTS-BE-3DOF
:DEGREES
306
root 9.02057 15.4468 -23.8208 12.2995 58.2054 15.7146
lfemur -16.5635 19.0703 -17.9735
ltibia 52.1335 0 0
lfoot -17.2357 -25.9942 0
ltoes 58.862 0 0
rfemur -54.7036 -20.9954 37.3936
rtibia 57.79 0 0
rfoot 17.2512 17.2273 0
rtoes -0.509866 0 0
lowerback 9.67928 -3.21407 -8.47658
upperback 5.07702 -4.8195 -4.06383
thorax 0.260001 -2.43868 0.936149
lowerneck -5.61603 -10.3163 -2.30383
upperneck -2.59054 -13.646 10.6546
head 1.12402 -6.71009 3.36036
lclavicle -3.25996e-14 -1.44185e-14 0
lhumerus -42.4133 -42.346 99.205
lradius 59.1381 0 0
lwrist 21.4257 0 0
lhand 13.4896 11.4494 0
lfingers 7.12502 0 0
lthumb 38.4277 37.1285 0
rclavicle -3.25996e-14 -1.44185e-14 0
rhumerus -34.2485 70.761 -68.9907
rradius 80.895 0 0
rwrist 4.44864 0 0
rhand 5.73693 -5.31899 0
rfingers 7.12502 0 0
rthumb 31.0756 -752.769 0
307
root 9.03556 15.4426 -23.7909 12.3034 58.1706 15.8217
lfemur -16.3346 19.0629 -17.9456
ltibia 52.1156 0 0
lfoot -17.3099 -25.9107 0
ltoes 58.5917 0 0
rfemur -55.0266 -21.1301 37.4161
rtibia 57.7782 0 0
rfoot 17.2081 17.352 0
rtoes -0.30275 0 0
lowerback 9.73871 -3.19862 -8.51413
upperback 5.12525 -4.80127 -4.11015
thorax 0.275237 -2.43 0.909921
lowerneck -5.55651 -10.361 -2.27002
upperneck -2.6718 -13.7054 10.7194
head 1.09146 -6.74108 3.37883
lclavicle -3.33958e-14 -1.43125e-14 0
lhumerus -42.4065 -42.5304 99.1545
lradius 59.1219 0 0
lwrist 21.3914 0 0
lhand 13.5646 11.4558 0
lfingers 7.12502 0 0
lthumb 38.4988 37.1176 0
rclavicle -3.33958e-14 -1.43125e-14 0
rhumerus -33.9357 70.9667 -68.9449
rradius 81.2445 0 0
rwrist 3.93263 0 0
rhand 5.47149 -5.7173 0
rfingers 7.12502 0 0
rthumb 30.8196 -753.153 0
308
root 9.06745 15.4352 -23.71 12.2903 57.9596 16.0196
lfemur -15.7568 19.0636 -17.8449
ltibia 51.988 0 0
lfoot -17.5534 -25.4814 0
ltoes 57.6746 0 0
rfemur -55.7399 -21.3468 37.1775
rtibia 57.7356 0 0
rfoot 17.0467 17.4123 0
rtoes 0.427106 0 0
lowerback 9.85859 -3.1426 -8.56739
upperback 5.23114 -4.72936 -4.19991
thorax 0.311305 -2.39502 0.846035
lowerneck -5.39976 -10.4822 -2.15495
upperneck -2.89337 -13.8656 10.8439
head 0.998088 -6.82611 3.40976
lclavicle -3.58768e-14 -1.38178e-14 0
lhumerus -42.4656 -43.0582 99.1691
lradius 59.0898 0 0
lwrist 21.2653 0 0
lhand 13.7504 11.4859 0
lfingers 7.12502 0 0
lthumb 38.6748 37.1044 0
rclavicle -3.58768e-14 -1.38178e-14 0
rhumerus -32.9859 70.9486 -68.7614
rradius 82.0507 0 0
rwrist 2.58797 0 0
rhand 4.38332 -6.9936 0
rfingers 7.12502 0 0
rthumb 29.771 -754.404 0
309
root 9.08736 15.4332 -23.6293 12.2442 57.5876 16.0909
lfemur -15.2365 19.0932 -17.7092
ltibia 51.7519 0 0
lfoot -17.8572 -24.7755 0
ltoes 56.5133 0 0
rfemur -56.2315 -21.3603 36.5282
rtibia 57.6763 0 0
rfoot 16.8188 17.0882 0
rtoes 1.39864 0 0
lowerback 9.92232 -3.067 -8.55396
upperback 5.30318 -4.62636 -4.24075
thorax 0.340235 -2.34423 0.791768
lowerneck -5.24892 -10.6037 -2.00718
upperneck -3.11744 -14.0249 10.8984
head 0.897402 -6.91267 3.41448
lclavicle -3.89039e-14 -1.30223e-14 0
lhumerus -42.6319 -43.6261 99.3924
lradius 59.074 0 0
lwrist 21.0933 0 0
lhand 13.9126 11.5338 0
lfingers 7.12502 0 0
lthumb 38.8283 37.114 0
rclavicle -3.89039e-14 -1.30223e-14 0
rhumerus -31.8936 70.1378 -68.496
rradius 82.6664 0 0
rwrist 1.31138 0 0
rhand 2.78413 -8.54761 0
rfingers 7.12502 0 0
rthumb 28.2308 -755.949 0
310
root 9.09635 15.4359 -23.549 12.1686 57.0708 16.0471
lfemur -14.77 19.1488 -17.5422
ltibia 51.4182 0 0
lfoot -18.2142 -23.82 0
ltoes 55.1302 0 0
rfemur -56.5204 -21.1897 35.5085
rtibia 57.6018 0 0
rfoot 16.5313 16.4164 0
rtoes 2.58652 0 0
lowerback 9.93483 -2.97393 -8.4801
upperback 5.34429 -4.49557 -4.23709
thorax 0.36264 -2.27928 0.746394
lowerneck -5.10396 -10.7249 -1.83031
upperneck -3.34298 -14.1828 10.8893
head 0.790444 -7.00031 3.39544
lclavicle -4.23944e-14 -1.19603e-14 0
lhumerus -42.8947 -44.2281 99.8038
lradius 59.0731 0 0
lwrist 20.8803 0 0
lhand 14.0526 11.5976 0
lfingers 7.12502 0 0
lthumb 38.9609 37.1442 0
rclavicle -4.23944e-14 -1.19603e-14 0
rhumerus -30.6758 68.6119 -68.1571
rradius 83.1074 0 0
rwrist 0.101283 0 0
rhand 0.727941 -10.3468 0
rfingers 7.12502 0 0
rthumb 26.2507 -757.756 0
311
root 9.09548 15.4431 -23.4693 12.0667 56.4254 15.8999
lfemur -14.3538 19.228 -17.3476
ltibia 50.998 0 0
lfoot -18.6173 -22.6419 0
ltoes 53.548 0 0
rfemur -56.6258 -20.8539 34.159
rtibia 57.514 0 0
rfoot 16.1912 15.4336 0
rtoes 3.9654 0 0
lowerback 9.90107 -2.86551 -8.35208
upperback 5.35739 -4.34027 -4.19339
thorax 0.379133 -2.20185 0.709184
lowerneck -4.96484 -10.8454 -1.62793
upperneck -3.56897 -14.3389 10.8229
head 0.678256 -7.08858 3.35508
lclavicle -4.62655e-14 -1.0666e-14 0
lhumerus -43.2434 -44.8586 100.383
lradius 59.0856 0 0
lwrist 20.631 0 0
lhand 14.1722 11.6755 0
lfingers 7.12502 0 0
lthumb 39.074 37.1928 0
rclavicle -4.62655e-14 -1.0666e-14 0
rhumerus -29.3497 66.4484 -67.7533
rradius 83.3899 0 0
rwrist -1.04392 0 0
rhand -1.73123 -12.3587 0
rfingers 7.12502 0 0
rthumb 23.8829 -759.789 0
312
root 9.0858 15.4541 -23.3904 11.9416 55.6675 15.6609
lfemur -13.9841 19.3279 -17.1293
ltibia 50.5021 0 0
lfoot -19.0594 -21.2683 0
ltoes 51.7891 0 0
rfemur -56.5666 -20.3718 32.5202
rtibia 57.4146 0 0
rfoot 15.8056 14.1765 0
rtoes 5.50995 0 0
lowerback 9.82598 -2.74387 -8.17617
upperback 5.34537 -4.16377 -4.11409
thorax 0.390325 -2.11362 0.67941
lowerneck -4.83152 -10.9648 -1.40364
upperneck -3.79437 -14.4927 10.7058
head 0.561878 -7.17703 3.29585
lclavicle -5.04346e-14 -9.17361e-15 0
lhumerus -43.6673 -45.5116 101.11
lradius 59.11 0 0
lwrist 20.3502 0 0
lhand 14.273 11.7658 0
lfingers 7.12502 0 0
lthumb 39.1693 37.2578 0
rclavicle -5.04346e-14 -9.17361e-15 0
rhumerus -27.9323 63.7248 -67.293
rradius 83.5298 0 0
rwrist -2.1258 0 0
rhand -4.53934 -14.5508 0
rfingers 7.12502 0 0
rthumb 21.1794 -762.015 0
